# MagicaVoxel @ Ephtracy

# group
o 

# material
mtllib Pensos.mtl
usemtl palette

# normals
vn -1 0 0
vn 1 0 0
vn 0 0 1
vn 0 0 -1
vn 0 -1 0
vn 0 1 0

# texcoords
vt 0.841797 0.5
vt 0.958984 0.5
vt 0.970703 0.5
vt 0.978516 0.5
vt 0.986328 0.5
vt 0.994141 0.5

# verts
v -2 0 1.8
v -2 0 -2
v -2 0.8 1.8
v -2 0.8 -2
v -2 0.9 1.8
v -2 0.9 -2
v -2 1.3 1.8
v -2 1.3 -2
v -1.4 0.7 1.9
v -1.4 0.7 1.8
v -1.4 0.8 1.8
v -1.4 0.9 1.8
v -1.4 1.1 1.9
v -1.4 1.1 1.8
v -0.6 0.3 2
v -0.6 0.3 1.9
v -0.6 0.8 1.9
v -0.6 0.8 1.8
v -0.6 0.9 2
v -0.6 0.9 1.8
v 0.5 0.4 2
v 0.5 0.4 1.9
v 0.5 0.8 1.9
v 0.5 0.8 1.8
v 0.5 0.9 2
v 0.5 0.9 1.8
v 1.2 0.7 1.9
v 1.2 0.7 1.8
v 1.2 0.8 1.8
v 1.2 0.9 1.8
v 1.2 1.1 1.9
v 1.2 1.1 1.8
v -1.2 0.7 1.9
v -1.2 0.7 1.8
v -1.2 0.8 1.8
v -1.2 0.9 1.8
v -1.2 1.1 1.9
v -1.2 1.1 1.8
v -0.5 0.4 2
v -0.5 0.4 1.9
v -0.5 0.8 1.9
v -0.5 0.8 1.8
v -0.5 0.9 2
v -0.5 0.9 1.8
v 0.6 0.3 2
v 0.6 0.3 1.9
v 0.6 0.8 1.9
v 0.6 0.8 1.8
v 0.6 0.9 2
v 0.6 0.9 1.8
v 1.4 0.7 1.9
v 1.4 0.7 1.8
v 1.4 0.8 1.8
v 1.4 0.9 1.8
v 1.4 1.1 1.9
v 1.4 1.1 1.8
v 2 0 1.8
v 2 0 -2
v 2 0.8 1.8
v 2 0.8 -2
v 2 0.9 1.8
v 2 0.9 -2
v 2 1.3 1.8
v 2 1.3 -2
v -0.6 0.3 2
v -0.6 0.9 2
v -0.5 0.4 2
v -0.5 0.9 2
v 0.5 0.4 2
v 0.5 0.9 2
v 0.6 0.3 2
v 0.6 0.9 2
v -1.4 0.7 1.9
v -1.4 1.1 1.9
v -1.2 0.7 1.9
v -1.2 1.1 1.9
v 1.2 0.7 1.9
v 1.2 1.1 1.9
v 1.4 0.7 1.9
v 1.4 1.1 1.9
v -2 0 1.8
v -2 0.8 1.8
v -2 0.9 1.8
v -2 1.3 1.8
v -1.4 0.7 1.8
v -1.4 0.8 1.8
v -1.4 0.9 1.8
v -1.4 1.1 1.8
v -1.2 0.7 1.8
v -1.2 0.8 1.8
v -1.2 0.9 1.8
v -1.2 1.1 1.8
v -0.6 0.8 1.8
v -0.6 0.9 1.8
v -0.5 0.8 1.8
v -0.5 0.9 1.8
v 0.5 0.8 1.8
v 0.5 0.9 1.8
v 0.6 0.8 1.8
v 0.6 0.9 1.8
v 1.2 0.7 1.8
v 1.2 0.8 1.8
v 1.2 0.9 1.8
v 1.2 1.1 1.8
v 1.4 0.7 1.8
v 1.4 0.8 1.8
v 1.4 0.9 1.8
v 1.4 1.1 1.8
v 2 0 1.8
v 2 0.8 1.8
v 2 0.9 1.8
v 2 1.3 1.8
v -0.6 0.3 1.9
v -0.6 0.8 1.9
v -0.5 0.4 1.9
v -0.5 0.8 1.9
v 0.5 0.4 1.9
v 0.5 0.8 1.9
v 0.6 0.3 1.9
v 0.6 0.8 1.9
v -2 0 -2
v -2 0.8 -2
v -2 0.9 -2
v -2 1.3 -2
v -1.9 0.8 -2
v -1.9 0.9 -2
v 1.9 0.8 -2
v 1.9 0.9 -2
v 2 0 -2
v 2 0.8 -2
v 2 0.9 -2
v 2 1.3 -2
v -2 0 1.8
v 2 0 1.8
v -2 0 -2
v 2 0 -2
v -0.6 0.3 2
v 0.6 0.3 2
v -0.6 0.3 1.9
v 0.6 0.3 1.9
v -1.4 0.7 1.9
v -1.2 0.7 1.9
v 1.2 0.7 1.9
v 1.4 0.7 1.9
v -1.4 0.7 1.8
v -1.2 0.7 1.8
v 1.2 0.7 1.8
v 1.4 0.7 1.8
v -0.6 0.8 1.9
v -0.5 0.8 1.9
v 0.5 0.8 1.9
v 0.6 0.8 1.9
v -0.6 0.8 1.8
v -0.5 0.8 1.8
v 0.5 0.8 1.8
v 0.6 0.8 1.8
v -0.5 0.4 2
v 0.5 0.4 2
v -0.5 0.4 1.9
v 0.5 0.4 1.9
v -0.6 0.9 2
v -0.5 0.9 2
v 0.5 0.9 2
v 0.6 0.9 2
v -0.6 0.9 1.8
v -0.5 0.9 1.8
v 0.5 0.9 1.8
v 0.6 0.9 1.8
v -1.4 1.1 1.9
v -1.2 1.1 1.9
v 1.2 1.1 1.9
v 1.4 1.1 1.9
v -1.4 1.1 1.8
v -1.2 1.1 1.8
v 1.2 1.1 1.8
v 1.4 1.1 1.8
v -2 1.3 1.8
v 2 1.3 1.8
v -0.3 1.3 1
v 0.3 1.3 1
v -1.2 1.3 0.2
v -0.3 1.3 0.2
v 0.3 1.3 0.2
v 1.2 1.3 0.2
v -1.2 1.3 -0.4
v -0.3 1.3 -0.4
v 0.3 1.3 -0.4
v 1.2 1.3 -0.4
v -0.3 1.3 -1.2
v 0.3 1.3 -1.2
v -2 1.3 -2
v 2 1.3 -2

# faces
f 3/3/1 2/3/1 1/3/1
f 4/3/1 2/3/1 3/3/1
f 5/4/1 4/4/1 3/4/1
f 6/4/1 4/4/1 5/4/1
f 7/3/1 6/3/1 5/3/1
f 8/3/1 6/3/1 7/3/1
f 11/5/1 10/5/1 9/5/1
f 12/5/1 11/5/1 9/5/1
f 13/5/1 12/5/1 9/5/1
f 14/5/1 12/5/1 13/5/1
f 17/6/1 16/6/1 15/6/1
f 19/6/1 17/6/1 15/6/1
f 19/6/1 18/6/1 17/6/1
f 20/6/1 18/6/1 19/6/1
f 23/6/1 22/6/1 21/6/1
f 25/6/1 23/6/1 21/6/1
f 25/6/1 24/6/1 23/6/1
f 26/6/1 24/6/1 25/6/1
f 29/5/1 28/5/1 27/5/1
f 30/5/1 29/5/1 27/5/1
f 31/5/1 30/5/1 27/5/1
f 32/5/1 30/5/1 31/5/1
f 33/5/2 34/5/2 35/5/2
f 33/5/2 35/5/2 36/5/2
f 33/5/2 36/5/2 37/5/2
f 37/5/2 36/5/2 38/5/2
f 39/6/2 40/6/2 41/6/2
f 39/6/2 41/6/2 43/6/2
f 41/6/2 42/6/2 43/6/2
f 43/6/2 42/6/2 44/6/2
f 45/6/2 46/6/2 47/6/2
f 45/6/2 47/6/2 49/6/2
f 47/6/2 48/6/2 49/6/2
f 49/6/2 48/6/2 50/6/2
f 51/5/2 52/5/2 53/5/2
f 51/5/2 53/5/2 54/5/2
f 51/5/2 54/5/2 55/5/2
f 55/5/2 54/5/2 56/5/2
f 57/3/2 58/3/2 59/3/2
f 59/3/2 58/3/2 60/3/2
f 59/4/2 60/4/2 61/4/2
f 61/4/2 60/4/2 62/4/2
f 61/3/2 62/3/2 63/3/2
f 63/3/2 62/3/2 64/3/2
f 67/6/3 66/6/3 65/6/3
f 68/6/3 66/6/3 67/6/3
f 69/6/3 67/6/3 65/6/3
f 71/6/3 69/6/3 65/6/3
f 71/6/3 70/6/3 69/6/3
f 72/6/3 70/6/3 71/6/3
f 75/5/3 74/5/3 73/5/3
f 76/5/3 74/5/3 75/5/3
f 79/5/3 78/5/3 77/5/3
f 80/5/3 78/5/3 79/5/3
f 85/3/3 82/3/3 81/3/3
f 86/4/3 83/4/3 82/4/3
f 86/3/3 82/3/3 85/3/3
f 87/3/3 84/3/3 83/3/3
f 87/4/3 83/4/3 86/4/3
f 88/3/3 84/3/3 87/3/3
f 89/3/3 85/3/3 81/3/3
f 92/3/3 84/3/3 88/3/3
f 93/4/3 91/4/3 90/4/3
f 93/3/3 90/3/3 89/3/3
f 94/3/3 92/3/3 91/3/3
f 94/4/3 91/4/3 93/4/3
f 95/3/3 93/3/3 89/3/3
f 96/3/3 92/3/3 94/3/3
f 97/3/3 95/3/3 89/3/3
f 97/4/3 96/4/3 95/4/3
f 98/3/3 92/3/3 96/3/3
f 98/4/3 96/4/3 97/4/3
f 99/3/3 97/3/3 89/3/3
f 100/3/3 92/3/3 98/3/3
f 101/3/3 99/3/3 89/3/3
f 101/3/3 89/3/3 81/3/3
f 102/4/3 100/4/3 99/4/3
f 102/3/3 99/3/3 101/3/3
f 103/3/3 92/3/3 100/3/3
f 103/4/3 100/4/3 102/4/3
f 104/3/3 84/3/3 92/3/3
f 104/3/3 92/3/3 103/3/3
f 105/3/3 101/3/3 81/3/3
f 108/3/3 84/3/3 104/3/3
f 109/3/3 105/3/3 81/3/3
f 109/3/3 106/3/3 105/3/3
f 110/4/3 107/4/3 106/4/3
f 110/3/3 106/3/3 109/3/3
f 111/3/3 108/3/3 107/3/3
f 111/4/3 107/4/3 110/4/3
f 112/3/3 84/3/3 108/3/3
f 112/3/3 108/3/3 111/3/3
f 113/6/4 114/6/4 115/6/4
f 115/6/4 114/6/4 116/6/4
f 113/6/4 115/6/4 117/6/4
f 113/6/4 117/6/4 119/6/4
f 117/6/4 118/6/4 119/6/4
f 119/6/4 118/6/4 120/6/4
f 121/3/4 122/3/4 125/3/4
f 122/4/4 123/4/4 125/4/4
f 123/3/4 124/3/4 126/3/4
f 125/4/4 123/4/4 126/4/4
f 121/3/4 125/3/4 127/3/4
f 125/3/4 126/3/4 127/3/4
f 126/3/4 124/3/4 128/3/4
f 127/3/4 126/3/4 128/3/4
f 121/3/4 127/3/4 129/3/4
f 127/4/4 128/4/4 130/4/4
f 129/3/4 127/3/4 130/3/4
f 128/3/4 124/3/4 131/3/4
f 130/4/4 128/4/4 131/4/4
f 131/3/4 124/3/4 132/3/4
f 135/3/5 134/3/5 133/3/5
f 136/3/5 134/3/5 135/3/5
f 139/6/5 138/6/5 137/6/5
f 140/6/5 138/6/5 139/6/5
f 145/5/5 142/5/5 141/5/5
f 146/5/5 142/5/5 145/5/5
f 147/5/5 144/5/5 143/5/5
f 148/5/5 144/5/5 147/5/5
f 153/6/5 150/6/5 149/6/5
f 154/6/5 150/6/5 153/6/5
f 155/6/5 152/6/5 151/6/5
f 156/6/5 152/6/5 155/6/5
f 157/6/6 158/6/6 159/6/6
f 159/6/6 158/6/6 160/6/6
f 161/6/6 162/6/6 165/6/6
f 165/6/6 162/6/6 166/6/6
f 163/6/6 164/6/6 167/6/6
f 167/6/6 164/6/6 168/6/6
f 169/5/6 170/5/6 173/5/6
f 173/5/6 170/5/6 174/5/6
f 171/5/6 172/5/6 175/5/6
f 175/5/6 172/5/6 176/5/6
f 177/3/6 178/3/6 179/3/6
f 179/3/6 178/3/6 180/3/6
f 177/3/6 179/3/6 181/3/6
f 179/1/6 180/1/6 182/1/6
f 181/3/6 179/3/6 182/3/6
f 180/3/6 178/3/6 183/3/6
f 182/1/6 180/1/6 183/1/6
f 183/3/6 178/3/6 184/3/6
f 181/1/6 182/1/6 185/1/6
f 177/3/6 181/3/6 185/3/6
f 183/1/6 184/1/6 185/1/6
f 182/1/6 183/1/6 185/1/6
f 185/1/6 184/1/6 186/1/6
f 186/1/6 184/1/6 187/1/6
f 184/3/6 178/3/6 188/3/6
f 187/1/6 184/1/6 188/1/6
f 186/1/6 187/1/6 189/1/6
f 185/3/6 186/3/6 189/3/6
f 187/3/6 188/3/6 190/3/6
f 189/1/6 187/1/6 190/1/6
f 177/3/6 185/3/6 191/3/6
f 185/3/6 189/3/6 191/3/6
f 189/3/6 190/3/6 191/3/6
f 188/3/6 178/3/6 192/3/6
f 191/3/6 190/3/6 192/3/6
f 190/3/6 188/3/6 192/3/6
