# MagicaVoxel @ Ephtracy

# group
o 

# material
mtllib candeeiro.mtl
usemtl palette

# normals
vn -1 0 0
vn 1 0 0
vn 0 0 1
vn 0 0 -1
vn 0 -1 0
vn 0 1 0

# texcoords
vt 0.00195313 0.5
vt 0.00585938 0.5
vt 0.00976563 0.5
vt 0.0136719 0.5

# verts
v -0.7 0 0.5
v -0.7 0 -0.5
v -0.7 0.1 0.5
v -0.7 0.1 -0.5
v -0.5 0.1 0.3
v -0.5 0.1 -0.3
v -0.5 1.4 0.3
v -0.5 1.4 -0.3
v -0.5 1.6 0.3
v -0.5 1.6 -0.3
v -0.3 1.6 0.1
v -0.3 1.6 -0.1
v -0.3 7.1 0.1
v -0.3 7.1 -0.1
v -0.2 1.6 0.2
v -0.2 1.6 0.1
v -0.2 1.7 0.2
v -0.2 1.7 0.1
v -0.1 6.4 -0.1
v -0.1 6.4 -0.2
v -0.1 6.5 -0.1
v -0.1 6.6 0.3
v -0.1 6.6 0.2
v -0.1 6.7 0.3
v -0.1 6.7 0.2
v -0.1 6.7 0.1
v -0.1 6.7 -0.1
v -0.1 6.7 -0.2
v -0.1 6.7 -0.3
v -0.1 6.9 0.3
v -0.1 6.9 0.1
v -0.1 6.9 -0.1
v -0.1 6.9 -0.3
v -0.1 7.1 0.3
v -0.1 7.1 0.1
v -0.1 7.1 -0.1
v -0.1 7.1 -0.3
v 0 0.1 0.4
v 0 0.1 0.3
v 0 0.2 0.4
v 0 0.2 0.3
v 0 1.6 0.1
v 0 1.6 -0.1
v 0 1.7 0.1
v 0 1.7 -0.1
v 0.1 6.4 0.1
v 0.1 6.4 0
v 0.1 6.5 0
v 0.1 6.5 -0.1
v 0.1 6.6 -0.1
v 0.1 6.7 0.1
v 0.1 6.7 -0.1
v 0.2 6.6 0.2
v 0.2 6.6 0.1
v 0.2 6.6 -0.1
v 0.2 6.6 -0.2
v 0.2 6.7 0.2
v 0.2 6.7 0.1
v 0.2 6.7 -0.1
v 0.2 6.7 -0.2
v 0.3 6.6 0
v 0.3 6.6 -0.1
v 0.3 6.7 0
v 0.3 6.7 -0.1
v -0.2 6.4 0
v -0.2 6.4 -0.1
v -0.2 6.5 0
v -0.2 6.5 -0.1
v -0.1 1.6 0.1
v -0.1 1.6 -0.1
v -0.1 1.7 0.1
v -0.1 6.4 0
v -0.1 6.4 -0.1
v -0.1 6.5 0.1
v -0.1 6.5 0
v -0.1 6.5 -0.1
v -0.1 6.6 0.1
v -0.1 6.6 0
v -0.1 6.7 0.1
v -0.1 6.7 -0.1
v 0 1.6 0.2
v 0 1.6 0.1
v 0 1.7 0.2
v 0 1.7 0.1
v 0 6.4 -0.1
v 0 6.4 -0.2
v 0 6.5 0.1
v 0 6.5 0
v 0 6.6 0.1
v 0 6.6 0
v 0 6.6 -0.1
v 0 6.6 -0.2
v 0.1 0.1 0.3
v 0.1 0.1 0.2
v 0.1 0.1 0
v 0.1 0.1 -0.3
v 0.1 0.2 0.3
v 0.1 0.2 0.2
v 0.1 0.2 0
v 0.1 1.4 0.3
v 0.1 1.4 0.2
v 0.1 1.4 0.1
v 0.1 1.4 -0.3
v 0.1 1.5 0.2
v 0.1 1.5 0.1
v 0.1 1.6 0.3
v 0.1 1.6 0.1
v 0.1 1.6 -0.1
v 0.1 1.6 -0.3
v 0.1 1.7 0.1
v 0.1 1.7 -0.1
v 0.1 6.6 0.3
v 0.1 6.6 0.2
v 0.1 6.6 -0.1
v 0.1 6.6 -0.2
v 0.1 6.7 0.3
v 0.1 6.7 0.2
v 0.1 6.7 -0.1
v 0.1 6.7 -0.2
v 0.2 0.1 0.4
v 0.2 0.1 0.3
v 0.2 0.1 0.2
v 0.2 0.1 0
v 0.2 0.2 0.4
v 0.2 0.2 0.3
v 0.2 0.2 0.2
v 0.2 0.2 0
v 0.2 1.4 0.2
v 0.2 1.4 0.1
v 0.2 1.5 0.2
v 0.2 1.5 0.1
v 0.2 6.4 0.1
v 0.2 6.4 0
v 0.2 6.5 0
v 0.2 6.5 -0.1
v 0.2 6.6 0.1
v 0.2 6.6 0
v 0.2 6.6 -0.1
v 0.2 6.7 0
v 0.2 6.7 -0.1
v 0.3 0 0.5
v 0.3 0 -0.5
v 0.3 0.1 0.5
v 0.3 0.1 -0.5
v 0.3 6.6 0.2
v 0.3 6.6 0.1
v 0.3 6.6 -0.1
v 0.3 6.6 -0.2
v 0.3 6.7 0.2
v 0.3 6.7 0.1
v 0.3 6.7 -0.1
v 0.3 6.7 -0.2
v 0.4 6.6 0.1
v 0.4 6.6 -0.1
v 0.4 6.7 0.1
v 0.4 6.7 -0.1
v 0.7 6.7 0.3
v 0.7 6.7 -0.3
v 0.7 6.9 0.3
v 0.7 6.9 -0.3
v 0.7 7.1 0.3
v 0.7 7.1 -0.3
v -0.7 0 0.5
v -0.7 0.1 0.5
v 0.3 0 0.5
v 0.3 0.1 0.5
v 0 0.1 0.4
v 0 0.2 0.4
v 0.2 0.1 0.4
v 0.2 0.2 0.4
v -0.5 0.1 0.3
v -0.5 1.4 0.3
v -0.5 1.6 0.3
v -0.1 6.6 0.3
v -0.1 6.7 0.3
v -0.1 6.9 0.3
v -0.1 7.1 0.3
v 0 0.1 0.3
v 0 0.2 0.3
v 0.1 0.2 0.3
v 0.1 1.4 0.3
v 0.1 1.6 0.3
v 0.1 6.6 0.3
v 0.1 6.7 0.3
v 0.7 6.7 0.3
v 0.7 6.9 0.3
v 0.7 7.1 0.3
v -0.2 1.6 0.2
v -0.2 1.7 0.2
v 0 1.6 0.2
v 0 1.7 0.2
v 0.1 0.1 0.2
v 0.1 0.2 0.2
v 0.1 1.4 0.2
v 0.1 1.5 0.2
v 0.2 0.1 0.2
v 0.2 0.2 0.2
v 0.2 1.4 0.2
v 0.2 1.5 0.2
v 0.2 6.6 0.2
v 0.2 6.7 0.2
v 0.3 6.6 0.2
v 0.3 6.7 0.2
v -0.3 1.6 0.1
v -0.3 7.1 0.1
v -0.2 1.6 0.1
v -0.2 1.7 0.1
v -0.1 1.7 0.1
v -0.1 6.5 0.1
v -0.1 6.6 0.1
v -0.1 6.7 0.1
v -0.1 6.9 0.1
v -0.1 7.1 0.1
v 0 1.6 0.1
v 0 1.7 0.1
v 0 6.5 0.1
v 0 6.6 0.1
v 0.1 1.6 0.1
v 0.1 1.7 0.1
v 0.1 6.4 0.1
v 0.1 6.7 0.1
v 0.2 6.4 0.1
v 0.2 6.6 0.1
v 0.2 6.7 0.1
v 0.3 6.6 0.1
v 0.3 6.7 0.1
v 0.4 6.6 0.1
v 0.4 6.7 0.1
v -0.1 6.4 -0.1
v -0.1 6.5 -0.1
v -0.1 6.7 -0.1
v 0 6.4 -0.1
v 0 6.6 -0.1
v 0.1 6.6 -0.1
v 0.1 6.7 -0.1
v 0.2 6.6 -0.1
v 0.2 6.7 -0.1
v 0.3 6.6 -0.1
v 0.3 6.7 -0.1
v 0.1 0.1 0.3
v 0.1 0.2 0.3
v 0.2 0.1 0.3
v 0.2 0.2 0.3
v -0.1 6.6 0.2
v -0.1 6.7 0.2
v 0.1 6.6 0.2
v 0.1 6.7 0.2
v -0.1 1.6 0.1
v -0.1 1.7 0.1
v 0 1.6 0.1
v 0 1.7 0.1
v 0.1 1.4 0.1
v 0.1 1.5 0.1
v 0.2 1.4 0.1
v 0.2 1.5 0.1
v -0.2 6.4 0
v -0.2 6.5 0
v -0.1 6.4 0
v -0.1 6.5 0
v -0.1 6.6 0
v 0 6.5 0
v 0 6.6 0
v 0.1 0.1 0
v 0.1 0.2 0
v 0.1 6.4 0
v 0.1 6.5 0
v 0.2 0.1 0
v 0.2 0.2 0
v 0.2 6.4 0
v 0.2 6.5 0
v 0.2 6.6 0
v 0.2 6.7 0
v 0.3 6.6 0
v 0.3 6.7 0
v -0.3 1.6 -0.1
v -0.3 7.1 -0.1
v -0.2 6.4 -0.1
v -0.2 6.5 -0.1
v -0.1 1.6 -0.1
v -0.1 6.4 -0.1
v -0.1 6.5 -0.1
v -0.1 6.7 -0.1
v -0.1 6.9 -0.1
v -0.1 7.1 -0.1
v 0 1.6 -0.1
v 0 1.7 -0.1
v 0.1 1.6 -0.1
v 0.1 1.7 -0.1
v 0.1 6.5 -0.1
v 0.1 6.6 -0.1
v 0.1 6.7 -0.1
v 0.2 6.5 -0.1
v 0.2 6.6 -0.1
v 0.2 6.7 -0.1
v 0.3 6.6 -0.1
v 0.3 6.7 -0.1
v 0.4 6.6 -0.1
v 0.4 6.7 -0.1
v -0.1 6.4 -0.2
v -0.1 6.7 -0.2
v 0 6.4 -0.2
v 0 6.6 -0.2
v 0.1 6.6 -0.2
v 0.1 6.7 -0.2
v 0.2 6.6 -0.2
v 0.2 6.7 -0.2
v 0.3 6.6 -0.2
v 0.3 6.7 -0.2
v -0.5 0.1 -0.3
v -0.5 1.4 -0.3
v -0.5 1.6 -0.3
v -0.1 6.7 -0.3
v -0.1 6.9 -0.3
v -0.1 7.1 -0.3
v 0.1 0.1 -0.3
v 0.1 1.4 -0.3
v 0.1 1.6 -0.3
v 0.7 6.7 -0.3
v 0.7 6.9 -0.3
v 0.7 7.1 -0.3
v -0.7 0 -0.5
v -0.7 0.1 -0.5
v 0.3 0 -0.5
v 0.3 0.1 -0.5
v -0.7 0 0.5
v 0.3 0 0.5
v -0.7 0 -0.5
v 0.3 0 -0.5
v 0.1 1.4 0.2
v 0.2 1.4 0.2
v 0.1 1.4 0.1
v 0.2 1.4 0.1
v 0.1 6.4 0.1
v 0.2 6.4 0.1
v 0.1 6.4 0
v 0.2 6.4 0
v -0.1 6.4 -0.1
v 0 6.4 -0.1
v -0.1 6.4 -0.2
v 0 6.4 -0.2
v -0.1 6.5 0.1
v 0 6.5 0.1
v -0.2 6.5 0
v -0.1 6.5 0
v 0 6.5 0
v 0.1 6.5 0
v 0.2 6.5 0
v -0.2 6.5 -0.1
v -0.1 6.5 -0.1
v 0.1 6.5 -0.1
v 0.2 6.5 -0.1
v -0.1 6.6 0.3
v 0.1 6.6 0.3
v -0.1 6.6 0.2
v 0.1 6.6 0.2
v 0.2 6.6 0.2
v 0.3 6.6 0.2
v 0.2 6.6 0.1
v 0.3 6.6 0.1
v 0.4 6.6 0.1
v 0.2 6.6 0
v 0.3 6.6 0
v 0 6.6 -0.1
v 0.1 6.6 -0.1
v 0.2 6.6 -0.1
v 0.3 6.6 -0.1
v 0.4 6.6 -0.1
v 0 6.6 -0.2
v 0.1 6.6 -0.2
v 0.2 6.6 -0.2
v 0.3 6.6 -0.2
v 0.1 6.7 0.3
v 0.7 6.7 0.3
v -0.1 6.7 0.2
v 0.1 6.7 0.2
v 0.2 6.7 0.2
v 0.3 6.7 0.2
v -0.1 6.7 0.1
v 0.1 6.7 0.1
v 0.2 6.7 0.1
v 0.3 6.7 0.1
v 0.4 6.7 0.1
v 0.2 6.7 0
v 0.3 6.7 0
v -0.1 6.7 -0.1
v 0.1 6.7 -0.1
v 0.2 6.7 -0.1
v 0.3 6.7 -0.1
v 0.4 6.7 -0.1
v -0.1 6.7 -0.2
v 0.1 6.7 -0.2
v 0.2 6.7 -0.2
v 0.3 6.7 -0.2
v -0.1 6.7 -0.3
v 0.7 6.7 -0.3
v -0.7 0.1 0.5
v 0.3 0.1 0.5
v 0 0.1 0.4
v 0.2 0.1 0.4
v -0.5 0.1 0.3
v 0 0.1 0.3
v 0.1 0.1 0.3
v 0.2 0.1 0.3
v 0.1 0.1 0.2
v 0.2 0.1 0.2
v 0.1 0.1 0
v 0.2 0.1 0
v -0.5 0.1 -0.3
v 0.1 0.1 -0.3
v -0.7 0.1 -0.5
v 0.3 0.1 -0.5
v 0 0.2 0.4
v 0.2 0.2 0.4
v 0 0.2 0.3
v 0.1 0.2 0.3
v 0.2 0.2 0.3
v 0.1 0.2 0.2
v 0.2 0.2 0.2
v 0.1 0.2 0
v 0.2 0.2 0
v 0.1 1.5 0.2
v 0.2 1.5 0.2
v 0.1 1.5 0.1
v 0.2 1.5 0.1
v -0.5 1.6 0.3
v 0.1 1.6 0.3
v -0.2 1.6 0.2
v 0 1.6 0.2
v -0.3 1.6 0.1
v -0.2 1.6 0.1
v -0.1 1.6 0.1
v 0 1.6 0.1
v 0.1 1.6 0.1
v -0.3 1.6 -0.1
v -0.1 1.6 -0.1
v 0 1.6 -0.1
v 0.1 1.6 -0.1
v -0.5 1.6 -0.3
v 0.1 1.6 -0.3
v -0.2 1.7 0.2
v 0 1.7 0.2
v -0.2 1.7 0.1
v -0.1 1.7 0.1
v 0 1.7 0.1
v 0.1 1.7 0.1
v 0 1.7 -0.1
v 0.1 1.7 -0.1
v -0.2 6.4 0
v -0.1 6.4 0
v -0.2 6.4 -0.1
v -0.1 6.4 -0.1
v -0.1 6.6 0.1
v 0 6.6 0.1
v -0.1 6.6 0
v 0 6.6 0
v -0.1 7.1 0.3
v 0.7 7.1 0.3
v -0.3 7.1 0.1
v -0.1 7.1 0.1
v -0.3 7.1 -0.1
v -0.1 7.1 -0.1
v -0.1 7.1 -0.3
v 0.7 7.1 -0.3

# faces
f 3/1/1 2/1/1 1/1/1
f 4/1/1 2/1/1 3/1/1
f 7/2/1 6/2/1 5/2/1
f 8/2/1 6/2/1 7/2/1
f 9/1/1 8/1/1 7/1/1
f 10/1/1 8/1/1 9/1/1
f 13/2/1 12/2/1 11/2/1
f 14/2/1 12/2/1 13/2/1
f 17/3/1 16/3/1 15/3/1
f 18/3/1 16/3/1 17/3/1
f 21/3/1 20/3/1 19/3/1
f 24/3/1 23/3/1 22/3/1
f 25/3/1 23/3/1 24/3/1
f 27/3/1 20/3/1 21/3/1
f 28/3/1 20/3/1 27/3/1
f 30/4/1 26/4/1 25/4/1
f 30/4/1 25/4/1 24/4/1
f 31/4/1 26/4/1 30/4/1
f 32/4/1 29/4/1 28/4/1
f 32/4/1 28/4/1 27/4/1
f 33/4/1 29/4/1 32/4/1
f 34/2/1 31/2/1 30/2/1
f 35/2/1 31/2/1 34/2/1
f 36/2/1 33/2/1 32/2/1
f 37/2/1 33/2/1 36/2/1
f 40/3/1 39/3/1 38/3/1
f 41/3/1 39/3/1 40/3/1
f 44/3/1 43/3/1 42/3/1
f 45/3/1 43/3/1 44/3/1
f 48/3/1 47/3/1 46/3/1
f 50/3/1 49/3/1 48/3/1
f 51/3/1 48/3/1 46/3/1
f 51/3/1 50/3/1 48/3/1
f 52/3/1 50/3/1 51/3/1
f 57/3/1 54/3/1 53/3/1
f 58/3/1 54/3/1 57/3/1
f 59/3/1 56/3/1 55/3/1
f 60/3/1 56/3/1 59/3/1
f 63/3/1 62/3/1 61/3/1
f 64/3/1 62/3/1 63/3/1
f 65/2/2 66/2/2 67/2/2
f 67/2/2 66/2/2 68/2/2
f 69/2/2 70/2/2 71/2/2
f 71/2/2 70/2/2 72/2/2
f 72/2/2 70/2/2 73/2/2
f 71/2/2 72/2/2 74/2/2
f 74/2/2 72/2/2 75/2/2
f 75/2/2 76/2/2 78/2/2
f 77/2/2 78/2/2 79/2/2
f 78/2/2 76/2/2 80/2/2
f 79/2/2 78/2/2 80/2/2
f 81/3/2 82/3/2 83/3/2
f 83/3/2 82/3/2 84/3/2
f 87/3/2 88/3/2 89/3/2
f 89/3/2 88/3/2 90/3/2
f 85/3/2 86/3/2 91/3/2
f 91/3/2 86/3/2 92/3/2
f 93/2/2 94/2/2 97/2/2
f 97/2/2 94/2/2 98/2/2
f 95/2/2 96/2/2 99/2/2
f 97/2/2 98/2/2 100/2/2
f 98/2/2 99/2/2 100/2/2
f 100/2/2 99/2/2 101/2/2
f 101/2/2 99/2/2 102/2/2
f 99/2/2 96/2/2 103/2/2
f 102/2/2 99/2/2 103/2/2
f 100/1/2 101/1/2 104/1/2
f 102/1/2 103/1/2 105/1/2
f 100/1/2 104/1/2 106/1/2
f 104/1/2 105/1/2 106/1/2
f 105/1/2 103/1/2 107/1/2
f 106/1/2 105/1/2 107/1/2
f 107/1/2 103/1/2 108/1/2
f 108/1/2 103/1/2 109/1/2
f 107/3/2 108/3/2 110/3/2
f 110/3/2 108/3/2 111/3/2
f 112/3/2 113/3/2 116/3/2
f 116/3/2 113/3/2 117/3/2
f 114/3/2 115/3/2 118/3/2
f 118/3/2 115/3/2 119/3/2
f 120/3/2 121/3/2 124/3/2
f 124/3/2 121/3/2 125/3/2
f 122/3/2 123/3/2 126/3/2
f 126/3/2 123/3/2 127/3/2
f 128/3/2 129/3/2 130/3/2
f 130/3/2 129/3/2 131/3/2
f 132/3/2 133/3/2 134/3/2
f 132/3/2 134/3/2 136/3/2
f 134/3/2 135/3/2 136/3/2
f 136/3/2 135/3/2 137/3/2
f 137/3/2 135/3/2 138/3/2
f 137/3/2 138/3/2 139/3/2
f 139/3/2 138/3/2 140/3/2
f 141/1/2 142/1/2 143/1/2
f 143/1/2 142/1/2 144/1/2
f 145/3/2 146/3/2 149/3/2
f 149/3/2 146/3/2 150/3/2
f 147/3/2 148/3/2 151/3/2
f 151/3/2 148/3/2 152/3/2
f 153/3/2 154/3/2 155/3/2
f 155/3/2 154/3/2 156/3/2
f 157/4/2 158/4/2 159/4/2
f 159/4/2 158/4/2 160/4/2
f 159/2/2 160/2/2 161/2/2
f 161/2/2 160/2/2 162/2/2
f 165/1/3 164/1/3 163/1/3
f 166/1/3 164/1/3 165/1/3
f 169/3/3 168/3/3 167/3/3
f 170/3/3 168/3/3 169/3/3
f 178/2/3 172/2/3 171/2/3
f 179/2/3 172/2/3 178/2/3
f 180/2/3 172/2/3 179/2/3
f 181/1/3 173/1/3 172/1/3
f 181/2/3 172/2/3 180/2/3
f 182/1/3 173/1/3 181/1/3
f 183/3/3 175/3/3 174/3/3
f 184/4/3 176/4/3 175/4/3
f 184/3/3 175/3/3 183/3/3
f 185/4/3 176/4/3 184/4/3
f 186/2/3 177/2/3 176/2/3
f 186/4/3 176/4/3 185/4/3
f 187/2/3 177/2/3 186/2/3
f 190/3/3 189/3/3 188/3/3
f 191/3/3 189/3/3 190/3/3
f 196/3/3 193/3/3 192/3/3
f 197/3/3 193/3/3 196/3/3
f 198/3/3 195/3/3 194/3/3
f 199/3/3 195/3/3 198/3/3
f 202/3/3 201/3/3 200/3/3
f 203/3/3 201/3/3 202/3/3
f 206/2/3 205/2/3 204/2/3
f 207/2/3 205/2/3 206/2/3
f 208/2/3 205/2/3 207/2/3
f 209/2/3 205/2/3 208/2/3
f 210/2/3 205/2/3 209/2/3
f 211/2/3 205/2/3 210/2/3
f 212/2/3 205/2/3 211/2/3
f 213/2/3 205/2/3 212/2/3
f 216/3/3 210/3/3 209/3/3
f 217/3/3 210/3/3 216/3/3
f 218/3/3 215/3/3 214/3/3
f 219/3/3 215/3/3 218/3/3
f 222/3/3 221/3/3 220/3/3
f 223/3/3 221/3/3 222/3/3
f 224/3/3 221/3/3 223/3/3
f 227/3/3 226/3/3 225/3/3
f 228/3/3 226/3/3 227/3/3
f 232/3/3 230/3/3 229/3/3
f 232/3/3 231/3/3 230/3/3
f 233/3/3 231/3/3 232/3/3
f 234/3/3 231/3/3 233/3/3
f 235/3/3 231/3/3 234/3/3
f 238/3/3 237/3/3 236/3/3
f 239/3/3 237/3/3 238/3/3
f 240/3/4 241/3/4 242/3/4
f 242/3/4 241/3/4 243/3/4
f 244/3/4 245/3/4 246/3/4
f 246/3/4 245/3/4 247/3/4
f 248/3/4 249/3/4 250/3/4
f 250/3/4 249/3/4 251/3/4
f 252/3/4 253/3/4 254/3/4
f 254/3/4 253/3/4 255/3/4
f 256/2/4 257/2/4 258/2/4
f 258/2/4 257/2/4 259/2/4
f 259/3/4 260/3/4 261/3/4
f 261/3/4 260/3/4 262/3/4
f 263/3/4 264/3/4 267/3/4
f 267/3/4 264/3/4 268/3/4
f 265/3/4 266/3/4 269/3/4
f 269/3/4 266/3/4 270/3/4
f 271/3/4 272/3/4 273/3/4
f 273/3/4 272/3/4 274/3/4
f 275/2/4 276/2/4 277/2/4
f 277/2/4 276/2/4 278/2/4
f 275/2/4 277/2/4 279/2/4
f 279/2/4 277/2/4 280/2/4
f 278/2/4 276/2/4 281/2/4
f 281/2/4 276/2/4 282/2/4
f 282/2/4 276/2/4 283/2/4
f 283/2/4 276/2/4 284/2/4
f 285/3/4 286/3/4 287/3/4
f 287/3/4 286/3/4 288/3/4
f 290/3/4 291/3/4 292/3/4
f 289/3/4 290/3/4 292/3/4
f 292/3/4 291/3/4 293/3/4
f 293/3/4 291/3/4 294/3/4
f 295/3/4 296/3/4 297/3/4
f 297/3/4 296/3/4 298/3/4
f 299/3/4 300/3/4 301/3/4
f 301/3/4 300/3/4 302/3/4
f 302/3/4 300/3/4 303/3/4
f 303/3/4 300/3/4 304/3/4
f 305/3/4 306/3/4 307/3/4
f 307/3/4 306/3/4 308/3/4
f 309/2/4 310/2/4 315/2/4
f 310/1/4 311/1/4 316/1/4
f 315/2/4 310/2/4 316/2/4
f 316/1/4 311/1/4 317/1/4
f 312/4/4 313/4/4 318/4/4
f 313/2/4 314/2/4 319/2/4
f 318/4/4 313/4/4 319/4/4
f 319/2/4 314/2/4 320/2/4
f 321/1/4 322/1/4 323/1/4
f 323/1/4 322/1/4 324/1/4
f 327/1/5 326/1/5 325/1/5
f 328/1/5 326/1/5 327/1/5
f 331/3/5 330/3/5 329/3/5
f 332/3/5 330/3/5 331/3/5
f 335/3/5 334/3/5 333/3/5
f 336/3/5 334/3/5 335/3/5
f 339/3/5 338/3/5 337/3/5
f 340/3/5 338/3/5 339/3/5
f 344/3/5 342/3/5 341/3/5
f 345/3/5 342/3/5 344/3/5
f 348/2/5 344/2/5 343/2/5
f 349/2/5 344/2/5 348/2/5
f 350/3/5 347/3/5 346/3/5
f 351/3/5 347/3/5 350/3/5
f 354/3/5 353/3/5 352/3/5
f 355/3/5 353/3/5 354/3/5
f 358/3/5 357/3/5 356/3/5
f 359/3/5 357/3/5 358/3/5
f 361/3/5 359/3/5 358/3/5
f 361/3/5 360/3/5 359/3/5
f 362/3/5 360/3/5 361/3/5
f 366/3/5 360/3/5 362/3/5
f 367/3/5 360/3/5 366/3/5
f 368/3/5 364/3/5 363/3/5
f 369/3/5 364/3/5 368/3/5
f 370/3/5 366/3/5 365/3/5
f 371/3/5 366/3/5 370/3/5
f 375/4/5 373/4/5 372/4/5
f 376/4/5 373/4/5 375/4/5
f 377/4/5 373/4/5 376/4/5
f 378/4/5 375/4/5 374/4/5
f 378/4/5 376/4/5 375/4/5
f 379/4/5 376/4/5 378/4/5
f 380/4/5 376/4/5 379/4/5
f 381/4/5 373/4/5 377/4/5
f 382/4/5 373/4/5 381/4/5
f 385/4/5 379/4/5 378/4/5
f 386/4/5 379/4/5 385/4/5
f 387/4/5 384/4/5 383/4/5
f 388/4/5 384/4/5 387/4/5
f 389/4/5 373/4/5 382/4/5
f 391/4/5 387/4/5 386/4/5
f 392/4/5 387/4/5 391/4/5
f 393/4/5 389/4/5 388/4/5
f 394/4/5 392/4/5 391/4/5
f 394/4/5 393/4/5 392/4/5
f 394/4/5 391/4/5 390/4/5
f 395/4/5 389/4/5 393/4/5
f 395/4/5 393/4/5 394/4/5
f 395/4/5 373/4/5 389/4/5
f 396/1/6 397/1/6 398/1/6
f 398/1/6 397/1/6 399/1/6
f 396/1/6 398/1/6 400/1/6
f 400/1/6 398/1/6 401/1/6
f 399/1/6 397/1/6 403/1/6
f 402/1/6 403/1/6 404/1/6
f 403/1/6 397/1/6 405/1/6
f 404/1/6 403/1/6 405/1/6
f 405/1/6 397/1/6 407/1/6
f 396/1/6 400/1/6 408/1/6
f 406/1/6 407/1/6 409/1/6
f 396/1/6 408/1/6 410/1/6
f 408/1/6 409/1/6 410/1/6
f 409/1/6 407/1/6 411/1/6
f 410/1/6 409/1/6 411/1/6
f 407/1/6 397/1/6 411/1/6
f 412/3/6 413/3/6 414/3/6
f 414/3/6 413/3/6 415/3/6
f 415/3/6 413/3/6 416/3/6
f 417/3/6 418/3/6 419/3/6
f 419/3/6 418/3/6 420/3/6
f 421/3/6 422/3/6 423/3/6
f 423/3/6 422/3/6 424/3/6
f 425/1/6 426/1/6 427/1/6
f 427/1/6 426/1/6 428/1/6
f 425/1/6 427/1/6 429/1/6
f 429/1/6 427/1/6 430/1/6
f 428/1/6 426/1/6 432/1/6
f 432/1/6 426/1/6 433/1/6
f 425/1/6 429/1/6 434/1/6
f 431/1/6 432/1/6 435/1/6
f 435/1/6 432/1/6 436/1/6
f 425/1/6 434/1/6 438/1/6
f 436/1/6 437/1/6 438/1/6
f 435/1/6 436/1/6 438/1/6
f 434/1/6 435/1/6 438/1/6
f 438/1/6 437/1/6 439/1/6
f 440/3/6 441/3/6 442/3/6
f 442/3/6 441/3/6 443/3/6
f 443/3/6 441/3/6 444/3/6
f 444/3/6 445/3/6 446/3/6
f 446/3/6 445/3/6 447/3/6
f 448/2/6 449/2/6 450/2/6
f 450/2/6 449/2/6 451/2/6
f 452/3/6 453/3/6 454/3/6
f 454/3/6 453/3/6 455/3/6
f 456/2/6 457/2/6 459/2/6
f 458/2/6 459/2/6 460/2/6
f 459/2/6 457/2/6 461/2/6
f 460/2/6 459/2/6 461/2/6
f 461/2/6 457/2/6 462/2/6
f 462/2/6 457/2/6 463/2/6
